# Blender v2.92.0 OBJ File: 'room.blend'
# www.blender.org
o 실린더.001
v 0.000000 0.000000 -41.333855
v 0.000000 65.031998 -20.188202
v 29.227449 0.000000 -29.227449
v 14.275216 65.031998 -14.275216
v 41.333855 0.000000 0.000002
v 20.188202 65.031998 0.000001
v 29.227449 0.000000 29.227449
v 14.275216 65.031998 14.275215
v -0.000004 0.000000 41.333855
v -0.000002 65.031998 20.188202
v -29.227455 0.000000 29.227446
v -14.275218 65.031998 14.275212
v -41.333855 0.000000 -0.000000
v -20.188202 65.031998 -0.000000
v -29.227455 0.000000 -29.227448
v -14.275219 65.031998 -14.275215
v 29.227449 41.800407 -29.227449
v 0.000000 41.800407 -41.333855
v 41.333855 41.800407 0.000002
v 29.227449 41.800407 29.227449
v -0.000004 41.800407 41.333855
v -29.227455 41.800407 29.227446
v -41.333855 41.800407 -0.000000
v -29.227455 41.800407 -29.227448
v -0.000001 65.031998 -0.000002
vt 1.000000 -0.000000
vt 1.000000 0.900000
vt -0.000000 0.900000
vt -0.000000 0.000000
vt 1.000000 -0.000000
vt 1.000000 0.900000
vt -0.000000 0.900000
vt -0.000000 0.000000
vt 1.000000 -0.000000
vt 1.000000 0.900000
vt -0.000000 0.900000
vt -0.000000 0.000000
vt 1.000000 -0.000000
vt 1.000000 0.900000
vt -0.000000 0.900000
vt -0.000000 0.000000
vt 1.000000 -0.000000
vt 1.000000 0.900000
vt -0.000000 0.900000
vt -0.000000 0.000000
vt 1.000000 -0.000000
vt 1.000000 0.900000
vt -0.000000 0.900000
vt -0.000000 0.000000
vt 0.000000 0.975000
vt 1.000000 0.975000
vt 0.500000 1.000000
vt 1.000000 -0.000000
vt 1.000000 0.900000
vt -0.000000 0.900000
vt -0.000000 0.000000
vt 1.000000 -0.000000
vt 1.000000 0.900000
vt -0.000000 0.900000
vt -0.000000 0.000000
vt 1.000000 0.975000
vt 0.000000 0.975000
vt 1.000000 0.975000
vt 0.000000 0.975000
vt 1.000000 0.975000
vt 0.000000 0.975000
vt 1.000000 0.975000
vt 0.000000 0.975000
vt 1.000000 0.975000
vt 0.000000 0.975000
vt 1.000000 0.975000
vt 0.000000 0.975000
vt 1.000000 0.975000
vt 0.000000 0.975000
vn 0.3827 0.0000 -0.9239
vn 0.9239 0.0000 -0.3827
vn 0.9239 0.0000 0.3827
vn 0.3827 0.0000 0.9239
vn -0.3827 0.0000 0.9239
vn -0.9239 0.0000 0.3827
vn 0.0000 1.0000 -0.0000
vn -0.9239 0.0000 -0.3827
vn -0.3827 0.0000 -0.9239
vn 0.2929 0.6436 -0.7071
vn 0.7071 0.6436 -0.2929
vn 0.7071 0.6436 0.2929
vn 0.2929 0.6436 0.7071
vn -0.2929 0.6436 0.7071
vn -0.7071 0.6436 0.2929
vn -0.7071 0.6436 -0.2929
vn -0.2929 0.6436 -0.7071
s off
f 1/1/1 18/2/1 17/3/1 3/4/1
f 3/5/2 17/6/2 19/7/2 5/8/2
f 5/9/3 19/10/3 20/11/3 7/12/3
f 7/13/4 20/14/4 21/15/4 9/16/4
f 9/17/5 21/18/5 22/19/5 11/20/5
f 11/21/6 22/22/6 23/23/6 13/24/6
f 12/25/7 10/26/7 25/27/7
f 13/28/8 23/29/8 24/30/8 15/31/8
f 15/32/9 24/33/9 18/34/9 1/35/9
f 2/36/10 4/37/10 17/3/10 18/2/10
f 4/38/11 6/39/11 19/7/11 17/6/11
f 6/40/12 8/41/12 20/11/12 19/10/12
f 8/42/13 10/43/13 21/15/13 20/14/13
f 10/26/14 12/25/14 22/19/14 21/18/14
f 12/44/15 14/45/15 23/23/15 22/22/15
f 14/46/16 16/47/16 24/30/16 23/29/16
f 16/48/17 2/49/17 18/34/17 24/33/17
f 8/42/7 25/27/7 10/43/7
f 2/49/7 16/48/7 25/27/7
f 6/40/7 25/27/7 8/41/7
f 16/47/7 14/46/7 25/27/7
f 4/37/7 2/36/7 25/27/7
f 14/45/7 12/44/7 25/27/7
f 6/39/7 4/38/7 25/27/7
